<?xml version="1.0" standalone="no"?>
<!DOCTYPE svg PUBLIC "-//W3C//DTD SVG 20010904//EN"
 "http://www.w3.org/TR/2001/REC-SVG-20010904/DTD/svg10.dtd">
<svg version="1.0" xmlns="http://www.w3.org/2000/svg"
 width="260.000000pt" height="260.000000pt" viewBox="0 0 260.000000 260.000000"
 preserveAspectRatio="xMidYMid meet">
<metadata>
Created by potrace 1.11, written by Peter Selinger 2001-2013
</metadata>
<g transform="translate(0.000000,260.000000) scale(0.100000,-0.100000)"
fill="#000000" stroke="none">
<path d="M0 1300 l0 -1300 1300 0 1300 0 0 1300 0 1300 -1300 0 -1300 0 0
-1300z m1461 708 l39 -11 0 -98 0 -98 -35 15 c-49 20 -90 17 -120 -8 -32 -28
-47 -119 -43 -260 l3 -93 98 -3 97 -3 0 -89 0 -90 -100 0 -100 0 -2 -267 -3
-267 -75 -13 c-41 -6 -87 -14 -102 -17 l-28 -5 0 284 0 285 -40 0 -40 0 0 90
0 90 39 0 39 0 4 178 c5 199 13 230 76 295 79 83 193 116 293 85z"/>
</g>
</svg>
